<svg width="220" height="60" viewBox="0 0 220 60" xmlns="http://www.w3.org/2000/svg" role="img" aria-labelledby="title desc">
  <title id="title">Parkash Interior and Decorators logo</title>
  <desc id="desc">Stylized monogram pi with golden accent and tagline text</desc>
  <defs>
    <linearGradient id="brandGradient" x1="0%" y1="0%" x2="100%" y2="100%">
      <stop offset="0%" stop-color="#6c63ff" />
      <stop offset="100%" stop-color="#dab341" />
    </linearGradient>
  </defs>
  <rect x="0" y="0" width="220" height="60" rx="18" ry="18" fill="url(#brandGradient)" opacity="0.12" />
  <g transform="translate(24 16)">
    <path d="M16 0h12c6.6 0 10.5 3.8 10.5 9.3 0 5.6-3.9 9.7-10.7 9.7h-4v12h-7.8V0zm11.1 12c2.3 0 3.7-1.3 3.7-2.9 0-1.7-1.3-2.8-3.7-2.8h-3.3V12h3.3z" fill="#6c63ff" />
    <path d="M52.3 9.7c0-5.7 4.2-9.7 10.8-9.7 3.5 0 6.2 1.1 8.1 3.1l-4.6 4.3c-.8-.9-1.9-1.4-3.3-1.4-2.2 0-3.6 1.4-3.6 3.6 0 2.2 1.4 3.6 3.6 3.6 1.4 0 2.6-.5 3.3-1.4l4.6 4.3c-1.9 2.1-4.6 3.2-8.1 3.2-6.5 0-10.8-4.1-10.8-9.6z" fill="#dab341" />
  </g>
  <text x="118" y="27" fill="#2d3436" font-family="'Poppins', sans-serif" font-size="15" font-weight="700">Parkash Interior</text>
  <text x="118" y="44" fill="#6c63ff" font-family="'Poppins', sans-serif" font-size="13" font-weight="500">&amp; Decorators</text>
</svg>
